<svg xmlns="http://www.w3.org/2000/svg" xmlns:xlink="http://www.w3.org/1999/xlink" version="1.1" x="0px" y="0px" viewBox="0 0 32 40" enable-background="new 0 0 32 32" xml:space="preserve"><g><path d="M29.87,14.608c0.276,0,0.5-0.224,0.5-0.5v-3.782c0-0.276-0.224-0.5-0.5-0.5h-2.022V6.544c0-0.276-0.224-0.5-0.5-0.5h-6.304   h-6.304H8.435H2.13c-0.276,0-0.5,0.224-0.5,0.5v3.782c0,0.276,0.224,0.5,0.5,0.5h2.022v2.782H2.13c-0.276,0-0.5,0.224-0.5,0.5   v3.783c0,0.276,0.224,0.5,0.5,0.5h2.022v2.782H2.13c-0.276,0-0.5,0.224-0.5,0.5v3.782c0,0.276,0.224,0.5,0.5,0.5h6.304h6.305h6.304   h6.304c0.276,0,0.5-0.224,0.5-0.5v-3.282h2.022c0.276,0,0.5-0.224,0.5-0.5v-3.782c0-0.276-0.224-0.5-0.5-0.5h-2.022v-2.783H29.87z    M29.37,13.608h-2.022h-3.282v-2.782h3.282h2.022V13.608z M21.043,13.608h-3.283v-2.782h3.283h2.022v2.782H21.043z M23.065,21.174   h-2.022h-3.283v-2.782h3.283h2.022V21.174z M14.739,21.174h-3.283v-2.782h3.283h2.021v2.782H14.739z M8.935,14.608h2.022h3.283   v2.783h-3.283H8.935V14.608z M11.457,10.826h3.283h2.021v2.782h-2.021h-3.283V10.826z M20.543,17.392h-3.283h-2.021v-2.783h2.021   h3.283V17.392z M26.848,9.826h-3.282h-2.022V7.044h5.304V9.826z M20.543,9.826h-3.283h-2.021V7.044h5.304V9.826z M14.239,9.826   h-3.283H8.935V7.044h5.305V9.826z M2.63,7.044h5.304v2.782H4.652H2.63V7.044z M5.152,10.826h3.282h2.022v2.782H8.435H5.152V10.826z    M2.63,14.608h2.022h3.282v2.783H4.652H2.63V14.608z M5.152,18.392h3.282h2.022v2.782H8.435H5.152V18.392z M2.63,22.174h2.022   h3.282v2.782H2.63V22.174z M8.935,22.174h2.022h3.283v2.782H8.935V22.174z M15.239,22.174h2.021h3.283v2.782h-5.304V22.174z    M26.848,24.956h-5.304v-2.782h2.022h3.282V24.956z M29.37,21.174h-2.022h-3.282v-2.782h3.282h2.022V21.174z M26.848,17.392h-3.282   h-2.022v-2.783h2.022h3.282V17.392z"/></g><text x="0" y="47" fill="#000000" font-size="5px" font-weight="bold" font-family="'Helvetica Neue', Helvetica, Arial-Unicode, Arial, Sans-serif">Created by Firza Alamsyah</text><text x="0" y="52" fill="#000000" font-size="5px" font-weight="bold" font-family="'Helvetica Neue', Helvetica, Arial-Unicode, Arial, Sans-serif">from the Noun Project</text></svg>