<svg xmlns="http://www.w3.org/2000/svg" xmlns:xlink="http://www.w3.org/1999/xlink" version="1.1" x="0px" y="0px" viewBox="0 0 1024 1280" style="enable-background:new 0 0 1024 1024;" xml:space="preserve"><g><g><g><path d="M908.1,920.5c-7.1,0-14.1,0-21.2,0c-19.2,0-38.4,0-57.6,0c-28.4,0-56.8,0-85.2,0c-34.8,0-69.6,0-104.4,0     c-38,0-75.9,0-113.9,0c-38.3,0-76.6,0-114.9,0c-35.7,0-71.4,0-107.2,0c-30.2,0-60.4,0-90.6,0c-21.7,0-43.4,0-65.2,0     c-10.3,0-20.6-0.4-30.9,0c-0.4,0-0.9,0-1.3,0c5,5,10,10,15,15c0-7.5,0-15.1,0-22.6c0-20.5,0-41,0-61.5c0-30.3,0-60.7,0-91     c0-37.2,0-74.4,0-111.6c0-40.6,0-81.2,0-121.7c0-41,0-81.9,0-122.9c0-38.2,0-76.4,0-114.6c0-32.3,0-64.6,0-96.8     c0-23.2,0-46.4,0-69.7c0-11,0.4-22.1,0-33.1c0-0.5,0-0.9,0-1.4c-5,5-10,10-15,15c7.1,0,14.1,0,21.2,0c19.2,0,38.4,0,57.6,0     c28.4,0,56.8,0,85.2,0c34.8,0,69.6,0,104.4,0c38,0,75.9,0,113.9,0c38.3,0,76.6,0,114.9,0c35.7,0,71.4,0,107.2,0     c30.2,0,60.4,0,90.6,0c21.7,0,43.4,0,65.2,0c10.3,0,20.6,0.4,30.9,0c0.4,0,0.9,0,1.3,0c-5-5-10-10-15-15c0,7.5,0,15.1,0,22.6     c0,20.5,0,41,0,61.5c0,30.3,0,60.7,0,91c0,37.2,0,74.4,0,111.6c0,40.6,0,81.2,0,121.7c0,41,0,81.9,0,122.9c0,38.2,0,76.4,0,114.6     c0,32.3,0,64.6,0,96.8c0,23.2,0,46.4,0,69.7c0,11-0.2,22.1,0,33.1c0,0.5,0,0.9,0,1.4c0,7.8,6.9,15.4,15,15c8.1-0.4,15-6.6,15-15     c0-7.5,0-15.1,0-22.6c0-20.5,0-41,0-61.5c0-30.3,0-60.7,0-91c0-37.2,0-74.4,0-111.6c0-40.6,0-81.2,0-121.7c0-41,0-81.9,0-122.9     c0-38.2,0-76.4,0-114.6c0-32.3,0-64.6,0-96.8c0-23.2,0-46.4,0-69.7c0-11,0.2-22.1,0-33.1c0-0.5,0-0.9,0-1.4c0-8.1-6.9-15-15-15     c-7.1,0-14.1,0-21.2,0c-19.2,0-38.4,0-57.6,0c-28.4,0-56.8,0-85.2,0c-34.8,0-69.6,0-104.4,0c-38,0-75.9,0-113.9,0     c-38.3,0-76.6,0-114.9,0c-35.7,0-71.4,0-107.2,0c-30.2,0-60.4,0-90.6,0c-21.7,0-43.4,0-65.2,0c-10.3,0-20.6-0.2-30.9,0     c-0.4,0-0.9,0-1.3,0c-8.1,0-15,6.9-15,15c0,7.5,0,15.1,0,22.6c0,20.5,0,41,0,61.5c0,30.3,0,60.7,0,91c0,37.2,0,74.4,0,111.6     c0,40.6,0,81.2,0,121.7c0,41,0,81.9,0,122.9c0,38.2,0,76.4,0,114.6c0,32.3,0,64.6,0,96.8c0,23.2,0,46.4,0,69.7     c0,11-0.2,22.1,0,33.1c0,0.5,0,0.9,0,1.4c0,8.1,6.9,15,15,15c7.1,0,14.1,0,21.2,0c19.2,0,38.4,0,57.6,0c28.4,0,56.8,0,85.2,0     c34.8,0,69.6,0,104.4,0c38,0,75.9,0,113.9,0c38.3,0,76.6,0,114.9,0c35.7,0,71.4,0,107.2,0c30.2,0,60.4,0,90.6,0     c21.7,0,43.4,0,65.2,0c10.3,0,20.6,0.2,30.9,0c0.4,0,0.9,0,1.3,0c7.8,0,15.4-6.9,15-15C922.7,927.3,916.5,920.5,908.1,920.5z"/></g></g><g><g><path d="M838.1,850.5c-21.7,0-43.4,0-65.1,0c-51.9,0-103.9,0-155.8,0c-62.9,0-125.9,0-188.8,0     c-54.2,0-108.4,0-162.6,0c-17.8,0-35.5,0-53.3,0c-8.5,0-17-0.4-25.5,0c-0.4,0-0.7,0-1.1,0c5,5,10,10,15,15c0-6.3,0-12.6,0-18.9     c0-17.1,0-34.2,0-51.4c0-25.3,0-50.6,0-76c0-31.1,0-62.1,0-93.2c0-33.9,0-67.7,0-101.6c0-34.2,0-68.4,0-102.5     c0-31.9,0-63.8,0-95.6c0-26.9,0-53.9,0-80.8c0-19.4,0-38.8,0-58.2c0-9.2,0.4-18.4,0-27.6c0-0.4,0-0.8,0-1.2c-5,5-10,10-15,15     c21.7,0,43.4,0,65.1,0c51.9,0,103.9,0,155.8,0c62.9,0,125.9,0,188.8,0c54.2,0,108.4,0,162.6,0c17.8,0,35.5,0,53.3,0     c8.5,0,17,0.4,25.5,0c0.4,0,0.7,0,1.1,0c-5-5-10-10-15-15c0,6.3,0,12.6,0,18.9c0,17.1,0,34.2,0,51.4c0,25.3,0,50.6,0,76     c0,31.1,0,62.1,0,93.2c0,33.9,0,67.7,0,101.6c0,34.2,0,68.4,0,102.5c0,31.9,0,63.8,0,95.6c0,26.9,0,53.9,0,80.8     c0,19.4,0,38.8,0,58.2c0,9.2-0.2,18.4,0,27.6c0,0.4,0,0.8,0,1.2c0,7.8,6.9,15.4,15,15c8.1-0.4,15-6.6,15-15c0-6.3,0-12.6,0-18.9     c0-17.1,0-34.2,0-51.4c0-25.3,0-50.6,0-76c0-31.1,0-62.1,0-93.2c0-33.9,0-67.7,0-101.6c0-34.2,0-68.4,0-102.5     c0-31.9,0-63.8,0-95.6c0-26.9,0-53.9,0-80.8c0-19.4,0-38.8,0-58.2c0-9.2,0.2-18.4,0-27.6c0-0.4,0-0.8,0-1.2c0-8.1-6.9-15-15-15     c-21.7,0-43.4,0-65.1,0c-51.9,0-103.9,0-155.8,0c-62.9,0-125.9,0-188.8,0c-54.2,0-108.4,0-162.6,0c-26.2,0-52.6-0.7-78.8,0     c-0.4,0-0.7,0-1.1,0c-8.1,0-15,6.9-15,15c0,6.3,0,12.6,0,18.9c0,17.1,0,34.2,0,51.4c0,25.3,0,50.6,0,76c0,31.1,0,62.1,0,93.2     c0,33.9,0,67.7,0,101.6c0,34.2,0,68.4,0,102.5c0,31.9,0,63.8,0,95.6c0,26.9,0,53.9,0,80.8c0,19.4,0,38.8,0,58.2     c0,9.2-0.2,18.4,0,27.6c0,0.4,0,0.8,0,1.2c0,8.1,6.9,15,15,15c21.7,0,43.4,0,65.1,0c51.9,0,103.9,0,155.8,0     c62.9,0,125.9,0,188.8,0c54.2,0,108.4,0,162.6,0c26.2,0,52.6,0.7,78.8,0c0.4,0,0.7,0,1.1,0c7.8,0,15.4-6.9,15-15     C852.7,857.3,846.5,850.5,838.1,850.5z"/></g></g><g><g><path d="M948.1,920.5c-7.8,0-15.6,0-23.4,0c-21.1,0-42.2,0-63.3,0c-31.3,0-62.7,0-94,0c-38.1,0-76.2,0-114.3,0     c-41.9,0-83.8,0-125.6,0c-42.3,0-84.5,0-126.8,0c-39.3,0-78.5,0-117.8,0c-33.2,0-66.4,0-99.6,0c-24,0-47.9,0-71.9,0     c-11.3,0-22.7-0.2-34,0c-0.5,0-1,0-1.4,0c-7.8,0-15.4,6.9-15,15c0.4,8.1,6.6,15,15,15c7.8,0,15.6,0,23.4,0c21.1,0,42.2,0,63.3,0     c31.3,0,62.7,0,94,0c38.1,0,76.2,0,114.3,0c41.9,0,83.8,0,125.6,0c42.3,0,84.5,0,126.8,0c39.3,0,78.5,0,117.8,0     c33.2,0,66.4,0,99.6,0c24,0,47.9,0,71.9,0c11.3,0,22.7,0.2,34,0c0.5,0,1,0,1.4,0c7.8,0,15.4-6.9,15-15     C962.7,927.3,956.5,920.5,948.1,920.5L948.1,920.5z"/></g></g><g><g><path d="M527,865.5c0-6.3,0-12.6,0-18.9c0-17.1,0-34.2,0-51.4c0-25.3,0-50.6,0-76c0-31.1,0-62.1,0-93.2     c0-33.9,0-67.7,0-101.6c0-34.2,0-68.4,0-102.5c0-31.9,0-63.8,0-95.6c0-26.9,0-53.9,0-80.8c0-19.4,0-38.8,0-58.2     c0-9.2,0.2-18.4,0-27.6c0-0.4,0-0.8,0-1.2c0-7.8-6.9-15.4-15-15c-8.1,0.4-15,6.6-15,15c0,6.3,0,12.6,0,18.9c0,17.1,0,34.2,0,51.4     c0,25.3,0,50.6,0,76c0,31.1,0,62.1,0,93.2c0,33.9,0,67.7,0,101.6c0,34.2,0,68.4,0,102.5c0,31.9,0,63.8,0,95.6     c0,26.9,0,53.9,0,80.8c0,19.4,0,38.8,0,58.2c0,9.2-0.2,18.4,0,27.6c0,0.4,0,0.8,0,1.2c0,7.8,6.9,15.4,15,15     C520.1,880.1,527,873.9,527,865.5L527,865.5z"/></g></g><g><g><path d="M185.9,527c21.7,0,43.4,0,65.1,0c51.9,0,103.9,0,155.8,0c62.9,0,125.9,0,188.8,0c54.2,0,108.4,0,162.6,0     c26.2,0,52.6,0.7,78.8,0c0.4,0,0.7,0,1.1,0c7.8,0,15.4-6.9,15-15c-0.4-8.1-6.6-15-15-15c-21.7,0-43.4,0-65.1,0     c-51.9,0-103.9,0-155.8,0c-62.9,0-125.9,0-188.8,0c-54.2,0-108.4,0-162.6,0c-26.2,0-52.6-0.7-78.8,0c-0.4,0-0.7,0-1.1,0     c-7.8,0-15.4,6.9-15,15C171.3,520.1,177.5,527,185.9,527L185.9,527z"/></g></g><g><g><path d="M364.5,247.9c-26,26-52,52-78.1,78.1c-3.7,3.7-7.4,7.4-11.2,11.2c-5.7,5.7-5.7,15.5,0,21.2     c5.7,5.7,15.5,5.7,21.2,0c26-26,52-52,78.1-78.1c3.7-3.7,7.4-7.4,11.2-11.2c5.7-5.7,5.7-15.5,0-21.2     C380,242.2,370.2,242.2,364.5,247.9L364.5,247.9z"/></g></g><g><g><path d="M304.3,227.9c-16.3,16.3-32.7,32.7-49,49c-5.7,5.7-5.7,15.5,0,21.2c5.7,5.7,15.5,5.7,21.2,0     c16.3-16.3,32.7-32.7,49-49c5.7-5.7,5.7-15.5,0-21.2C319.8,222.2,310,222.2,304.3,227.9L304.3,227.9z"/></g></g><g><g><path d="M727.5,665.7c-26,26-52,52-78.1,78.1c-3.7,3.7-7.4,7.4-11.2,11.2c-5.7,5.7-5.7,15.5,0,21.2     c5.7,5.7,15.5,5.7,21.2,0c26-26,52-52,78.1-78.1c3.7-3.7,7.4-7.4,11.2-11.2c5.7-5.7,5.7-15.5,0-21.2     C743,659.9,733.2,659.9,727.5,665.7L727.5,665.7z"/></g></g><g><g><path d="M747.5,725.9c-16.3,16.3-32.7,32.7-49,49c-5.7,5.7-5.7,15.5,0,21.2c5.7,5.7,15.5,5.7,21.2,0     c16.3-16.3,32.7-32.7,49-49c5.7-5.7,5.7-15.5,0-21.2C763,720.1,753.2,720.1,747.5,725.9L747.5,725.9z"/></g></g></g><text x="0" y="1039" fill="#000000" font-size="5px" font-weight="bold" font-family="'Helvetica Neue', Helvetica, Arial-Unicode, Arial, Sans-serif">Created by shashank singh</text><text x="0" y="1044" fill="#000000" font-size="5px" font-weight="bold" font-family="'Helvetica Neue', Helvetica, Arial-Unicode, Arial, Sans-serif">from the Noun Project</text></svg>